<svg version="1.1" xmlns="http://www.w3.org/2000/svg" xmlns:xlink="http://www.w3.org/1999/xlink" width="455.15532" height="136.20205" viewBox="0,0,455.15532,136.20205"><g transform="translate(-11.62502,-101)"><g data-paper-data="{&quot;isPaintingLayer&quot;:true}" fill-rule="nonzero" stroke="#ffbe5a" stroke-width="5" stroke-linejoin="miter" stroke-miterlimit="10" stroke-dasharray="" stroke-dashoffset="0" style="mix-blend-mode: normal"><path d="M53.4616,103.5c0,0 -41.81363,13.82851 -39.22079,22.23945c2.06055,6.68423 43.27943,1.73483 53.3845,11.06696c9.16406,8.4631 -47.38301,22.75117 -47.38301,22.75117" fill="none" stroke-linecap="round"/><path d="M321.1702,164.41532l29.32642,-1.03811l-8.56529,-22.04718l-20.99022,22.6609l13.72444,21.18645" fill="none" stroke-linecap="round"/><path d="M403.43989,181.02497l15.8218,-45.38485l9.36513,40.22425l19.73992,-40.65848l11.90931,45.55956" fill="none" stroke-linecap="round"/><path d="M13.5,175.5l449,24l-21,35z" fill="#ffbe5a" stroke-linecap="round"/><g fill="none" stroke-linecap="round"><path d="M391.78028,156.12235l-21.94051,-12.81948l-9.36039,39.31343l31.81995,-9.88431"/><path d="M394.37554,142.10796l-2.07621,41.00508"/></g><g fill="none"><path d="M286.39374,109.13632l-12.45723,68.51482" stroke-linecap="round"/><path d="M311.30822,163.37722l-17.12871,18.94538l-17.1287,-18.94538l17.1287,-18.94538z" stroke-linecap="butt"/></g><g fill="none" stroke-linecap="round"><path d="M212.33785,133.605l31.66215,-0.51905"/><path d="M226.35225,120.62871l-2.59526,57.09568"/></g><g fill="none" stroke-linecap="round"><path d="M174.80137,141.11376l29.52637,0.1385"/><path d="M205.69067,140.53477c0,0 -3.34866,-23.67411 -13.9446,-23.31443c-10.59594,0.35967 -15.15002,17.56398 -18.16191,24.40429c-0.15432,0.35048 -4.03958,25.74238 7.10708,32.09877c11.14667,6.35639 24.64477,-13.99225 24.64477,-13.99225"/></g><g fill="none" stroke-linecap="round"><path d="M134.8344,140.07566l29.52637,0.13849"/><path d="M165.72368,139.49667c0,0 -3.34865,-23.67411 -13.94459,-23.31444c-10.59594,0.35967 -15.15002,17.56398 -18.16191,24.40429c-0.15432,0.35048 -4.03958,25.74238 7.10709,32.09877c11.14667,6.35639 24.64477,-13.99225 24.64477,-13.99225"/></g><g fill="none" stroke-linecap="round"><path d="M112.16089,120.62871l-7.52624,45.67654"/><path d="M109.82516,133.47523c0,0 7.81911,-8.73459 11.11812,-10.76475c3.44254,-2.11849 11.72015,-2.60083 11.72015,-2.60083"/></g><g fill="none" stroke-linecap="round"><path d="M70.89628,123.22396l31.66215,-0.51905"/><path d="M84.91068,110.24767l-2.59525,57.09568"/></g></g></g></svg>