<svg version="1.1" xmlns="http://www.w3.org/2000/svg" xmlns:xlink="http://www.w3.org/1999/xlink" width="720" height="540" viewBox="0,0,720,540"><defs><clipPath id="clip-1"><rect x="-240" y="-180" transform="scale(0.5,0.5)" width="1440" height="1080" fill="none" stroke-width="0.5"/></clipPath></defs><g transform="translate(120,90)"><g clip-path="url(#clip-1)" data-paper-data="{&quot;isPaintingLayer&quot;:true}" fill-rule="nonzero" stroke="none" stroke-linecap="butt" stroke-linejoin="miter" stroke-miterlimit="10" stroke-dasharray="" stroke-dashoffset="0" style="mix-blend-mode: normal"><path d="M12.24078,200.43866l-0.05237,-5.86543l-1.3738,1.42837c-1.33156,1.38445 -4.36336,3.99075 -5.81405,4.99806c-0.59706,0.41458 -0.74749,0.44329 -0.93656,0.17877c-0.17721,-0.24793 -0.07114,-0.5276 0.4974,-1.31119c2.00238,-2.76002 4.2409,-7.61521 5.63972,-12.23221c1.05803,-3.49218 1.26012,-3.21151 -2.36556,-3.28544l-3.07716,-0.0628l-0.14413,-0.62666l-0.14413,-0.62668h3.9082h3.9082v-3.07639v-3.07639l0.63784,0.0069c0.35082,0.00344 1.91842,0.15451 3.48359,0.33506c1.56517,0.18055 3.04759,0.3313 3.29424,0.33504c0.39291,0.00603 0.42143,0.06545 0.23011,0.48054c-0.12009,0.26058 -0.47976,0.57958 -0.79926,0.70891l-0.58088,0.23513l0.05638,1.96868l0.05638,1.96871l0.68691,0.06211c0.65795,0.05952 0.73583,-0.01938 1.84731,-1.86953c0.63823,-1.06241 1.22841,-2.05943 1.31158,-2.21563c0.1376,-0.25849 0.86279,0.43699 4.5591,4.37234c0.33263,0.35414 0.33515,0.40826 0.03501,0.7567c-0.279,0.32395 -0.87148,0.37527 -4.3325,0.37527l-4.00928,-0.00007v0.64199c0,0.61 0.0718,0.66162 1.44324,1.03702c2.88305,0.78918 5.11898,2.48109 5.86786,4.44013c0.40658,1.06362 0.35602,2.09306 -0.15971,3.25105c-0.67539,1.51651 -2.74405,2.03996 -4.22984,1.07036c-0.68354,-0.44608 -0.7627,-0.59046 -0.7627,-1.39137c0,-1.36294 -0.53729,-3.47821 -1.33843,-5.26943l-0.72229,-1.61491l-0.12323,3.19034c-0.06779,1.75468 -0.13402,5.77382 -0.1472,8.93139c-0.02367,5.67927 -0.02871,5.74495 -0.46553,6.10386c-0.65871,0.5412 -2.80538,1.20754 -4.4125,1.36965l-1.41953,0.14326zM67.01124,204.3245c-0.58792,-3.51958 -1.88685,-4.91334 -5.6109,-6.02051c-0.53639,-0.15948 -0.83411,-0.37566 -0.83411,-0.60572c0,-0.25574 0.12589,-0.32241 0.44159,-0.23391c0.24287,0.06813 2.09551,0.19625 4.11698,0.28477c2.83991,0.12438 3.74334,0.09551 3.97425,-0.12701c0.25203,-0.24285 0.29884,-1.12262 0.29884,-5.61526v-5.3273h-8.81245h-8.81247l-0.21547,-0.71763c-0.11849,-0.39472 -0.21545,-0.75363 -0.21545,-0.79759c0,-0.04401 4.06255,-0.07993 9.02792,-0.07993h9.02792v-3.30427v-3.30425l0.93223,0.01826c0.51273,0.00999 1.68293,0.10023 2.60043,0.20058l1.6682,0.18243l0.704,-0.8717c0.7389,-0.91487 2.64332,-4.01377 2.84884,-4.63564c0.10864,-0.32874 -0.73885,-0.3629 -9.00423,-0.3629h-9.12416l-0.11833,-0.51273c-0.27607,-1.19616 -0.82286,-1.13888 9.24767,-0.96861l9.37138,0.15847l1.75081,-2.0598l1.75081,-2.0598l1.37174,1.37428c1.21022,1.21245 1.39433,1.32739 1.56361,0.97615c0.21659,-0.44936 1.11902,-4.15689 1.11902,-4.59736c0,-0.22722 -2.77949,-0.28644 -13.44374,-0.28644h-13.44374v1.78169c0,3.28904 -1.07764,5.76403 -2.85244,6.55104c-1.65431,0.73358 -3.71317,-0.21661 -4.42769,-2.04346c-0.20094,-0.51374 -0.36535,-1.2417 -0.36535,-1.6177c0,-1.09341 0.66196,-2.48746 1.57914,-3.32565c2.39403,-2.1878 3.90699,-4.76048 3.90733,-6.64412c0.00039,-1.91567 0.84994,-0.52778 1.67626,2.73832l0.30363,1.20014l5.14324,-0.06071l5.14324,-0.06071l0.05333,-4.3867l0.05333,-4.3867l0.6336,-0.00431c0.83635,-0.00518 7.87655,0.51765 7.96015,0.5914c0.21167,0.18669 -0.49522,1.09705 -1.06743,1.37465l-0.67647,0.32819l0.05443,3.24164l0.05443,3.24164l4.72909,0.06099l4.72912,0.06099l1.68284,-1.98944l1.68284,-1.98942l2.70167,2.96759c1.4859,1.63216 2.735,3.08369 2.77574,3.22562c0.04117,0.1433 -0.34933,0.40404 -0.87782,0.58629c-0.52356,0.18055 -1.74357,0.83727 -2.71115,1.45944c-0.96756,0.62219 -2.61901,1.53149 -3.66987,2.02071c-1.05086,0.48924 -1.91196,0.9504 -1.91352,1.02484c-0.00149,0.07441 0.53321,0.63454 1.18841,1.24475c1.03595,0.96479 1.14976,1.14468 0.8729,1.37974c-0.17512,0.14869 -0.61087,0.33403 -0.96834,0.4119c-0.35747,0.07785 -1.3464,0.60895 -2.19762,1.18017c-0.85122,0.57122 -2.66987,1.67156 -4.04143,2.44519c-1.83354,1.03421 -2.509,1.52728 -2.55136,1.86238c-0.03338,0.26395 -0.36736,0.63149 -0.7936,0.87333l-0.73596,0.41756v2.14612v2.14608l4.66117,-0.0069l4.66114,-0.0069l1.3738,-2.17268c0.7556,-1.19497 1.51342,-2.31992 1.68405,-2.4999c0.2751,-0.29016 0.63062,-0.02213 3.14014,2.36837c1.55646,1.48256 2.85842,2.86683 2.89327,3.07611c0.03991,0.2398 -0.12814,0.46507 -0.45435,0.60909c-0.3179,0.14032 -3.87847,0.22855 -9.22567,0.22855h-8.70798l-0.06186,7.00732l-0.06186,7.00732l-0.55452,1.31119c-0.63871,1.51023 -1.65493,2.44663 -3.42306,3.15414c-0.97716,0.39103 -3.99829,1.11913 -4.63448,1.11698c-0.12078,0 -0.36629,-0.87881 -0.54556,-1.95203zM102.95823,192.47246v-13.8511l-1.71727,1.96156c-2.32152,2.65177 -3.83276,4.07112 -4.05778,3.81102c-0.11121,-0.12853 0.39712,-1.60416 1.31059,-3.80463c1.82444,-4.39488 3.16214,-8.26549 4.66822,-13.50747c1.05718,-3.67963 2.33302,-9.09687 2.65658,-11.28009c0.0743,-0.50134 0.16573,-0.97501 0.20317,-1.0526c0.04992,-0.10353 6.18052,1.98326 8.99417,3.06149c0.36849,0.14122 -0.68989,1.06749 -1.21975,1.06749c-0.48606,0 -0.60659,0.1666 -1.11274,1.5382c-0.72029,1.95189 -3.2382,7.77068 -4.04422,9.34614l-0.61365,1.19941l0.65555,0.30189c0.36056,0.16601 1.07865,0.48237 1.5958,0.70302c0.80041,0.34147 0.90378,0.45218 0.69498,0.7443c-0.13489,0.18873 -0.44762,0.43247 -0.69493,0.54164l-0.44966,0.19852v9.8324c0,8.98237 0.02715,9.80626 0.31364,9.53017c1.36739,-1.31767 5.65074,-10.56163 7.12365,-15.37366c0.74673,-2.43953 1.98312,-7.10191 1.98312,-7.47821c0,-0.08 -1.97849,-0.1455 -4.39662,-0.1455h-4.39662l-0.20525,-0.68364l-0.20525,-0.68364h5.68131h5.68131v-6.5751v-6.57507l0.93223,0.09954c0.51273,0.05469 2.47777,0.27233 4.36677,0.48354l3.43454,0.38402l-0.62274,0.73633c-0.34251,0.40498 -0.76201,0.73635 -0.93223,0.73635c-0.27302,0 -0.30949,0.63085 -0.30949,5.3552v5.3552h2.40947h2.40947l1.56375,-2.62064c0.86007,-1.44134 1.62989,-2.62064 1.71074,-2.62064c0.15822,0 2.64366,2.50166 4.55663,4.58636c1.86596,2.0335 1.89638,2.02216 -5.43374,2.02216h-6.08127l0.13377,0.62666c0.22237,1.04172 1.59268,4.05982 2.64836,5.83295c2.21465,3.71977 5.77153,7.18597 9.15889,8.92537c0.65882,0.33831 1.05464,0.68224 1.05464,0.91638c0,0.20614 -0.43387,0.94005 -0.96419,1.63092c-1.16042,1.51174 -2.05586,3.54694 -2.4971,5.67551c-0.17934,0.86515 -0.36498,1.7268 -0.41254,1.9148c-0.05993,0.23698 -0.41504,-0.0776 -1.15755,-1.02545c-4.07185,-5.19788 -6.9102,-12.67291 -8.86922,-23.35774c-0.13006,-0.70939 -0.19448,2.48327 -0.20903,10.35716c-0.01187,6.43349 0.05297,11.2885 0.14908,11.16613c0.09354,-0.11906 0.7202,-1.17565 1.39257,-2.34798l1.22246,-2.13153l0.71725,0.76c2.0181,2.13836 4.34803,4.89412 4.34803,5.14264c0,0.60629 -0.83924,0.75312 -4.3048,0.75312h-3.54556v4.42741c0,5.00081 0.07276,4.74557 -1.64086,5.7565c-1.35096,0.79704 -2.73328,1.20415 -4.09973,1.20741l-1.12848,0.00259v-5.697v-5.69702h-2.91095h-2.91095l-0.21082,-0.79759l-0.21082,-0.79759h3.12177h3.12177v-5.17923v-5.17923l-0.62764,0.90648c-2.19203,3.1658 -6.09474,7.28384 -9.3325,9.84734l-1.61915,1.282l-0.00298,4.57347c-0.00149,2.51543 -0.06788,4.68788 -0.1472,4.82775c-0.44354,0.78206 -3.08585,1.79615 -5.29598,2.03256l-1.42288,0.15219v-13.85096zM195.59249,197.73172c0,-4.70004 0.06623,-8.54486 0.1472,-8.54405c0.08096,0 1.15435,0.30897 2.3853,0.6848l2.23811,0.68336l1.99973,-1.22894c1.81713,-1.11671 4.80894,-3.28077 4.80894,-3.47839c0,-0.04426 -0.75069,-0.08053 -1.6682,-0.08053c-1.49064,0 -1.6682,0.04479 -1.6682,0.42045c0,1.05155 -2.0896,2.08548 -4.56302,2.25772l-1.71727,0.11961l-0.02536,-3.27891c-0.01395,-1.80341 -0.08016,-4.78658 -0.1472,-6.6293l-0.12186,-3.35041l-1.37382,1.03462c-1.97386,1.48657 -5.15779,3.31082 -5.30283,3.03838c-0.06669,-0.12539 0.51076,-1.02106 1.28333,-1.9904c2.5536,-3.20404 5.16074,-8.27099 6.35915,-12.3589c0.31233,-1.06534 0.58015,-1.95883 0.59516,-1.98557c0.01512,-0.02669 0.50897,0.10025 1.09762,0.28216c0.58865,0.18188 1.13655,0.33192 1.21749,0.33341c0.08096,0.00259 0.1472,-0.45875 0.1472,-1.02275v-1.02545h-5.29339h-5.29337l-0.16536,-0.74061l-0.16534,-0.74061l5.45873,-0.06055l5.45876,-0.06046v-2.61708c0,-2.56288 0.00919,-2.61702 0.44159,-2.61438c0.24287,0.00259 1.85464,0.15489 3.58174,0.3409c1.72707,0.18598 3.34196,0.33861 3.58863,0.33911c0.39369,0 0.42173,0.05899 0.22954,0.476c-0.12042,0.26127 -0.52097,0.62155 -0.89008,0.80064c-0.66618,0.32319 -0.6711,0.33643 -0.6711,1.80375v1.47818h3.92518h3.92518v-2.62064v-2.62064h0.48084c0.92408,0 7.45816,0.71062 7.55368,0.82151c0.20844,0.24198 -0.34832,0.89908 -0.93677,1.10564c-0.61804,0.21691 -0.62121,0.22592 -0.62121,1.76607v1.54803h1.62171h1.62171l1.34704,-2.05093c0.74089,-1.128 1.43312,-2.05093 1.53832,-2.05093c0.20502,0 4.13937,3.75017 4.71947,4.49857c0.32539,0.41974 0.32665,0.47046 0.01922,0.76698c-0.25918,0.25006 -1.44643,0.33183 -5.58795,0.38489l-5.25882,0.06736l-0.0595,1.07201c-0.05705,1.02917 -0.09086,1.08399 -0.84449,1.37025c-0.43176,0.16404 -1.34031,0.35866 -2.01899,0.43254c-1.05785,0.11517 -1.28929,0.22459 -1.6218,0.7668c-0.21334,0.34784 -0.63841,0.69637 -0.94465,0.77447c-0.54666,0.13941 -3.55931,2.07868 -3.55931,2.29114c0,0.05961 1.7498,0.10839 3.88846,0.10839h3.88846l1.44727,-2.05093c0.79601,-1.128 1.48576,-2.05093 1.53282,-2.05093c0.11815,0 2.37048,1.85908 4.23848,3.49848l1.55172,1.3618l-0.44498,0.41838c-0.39032,0.36697 -0.83102,0.41836 -3.58799,0.41836h-3.14303l1.85654,1.65214c2.66362,2.37037 2.90293,2.60487 2.90293,2.84472c0,0.46333 -1.08181,0.74439 -2.86506,0.74439h-1.86531l1.99173,1.76607c1.09544,0.97134 2.18186,1.94692 2.41424,2.16798l0.42253,0.40189l-0.45655,0.44629c-0.25109,0.24546 -0.41268,0.52606 -0.35907,0.62357c0.05363,0.09748 1.11719,1.04891 2.36345,2.11425c1.24626,1.06534 2.2689,2.05421 2.27259,2.19746c0.00371,0.14326 -0.14793,0.34837 -0.33682,0.45575c-0.18889,0.10743 -5.23197,0.24656 -11.20684,0.30924l-10.86338,0.11393l2.19119,2.22024c2.15254,2.18106 2.18253,2.2248 1.69986,2.48015c-0.36278,0.19192 -0.71612,0.19421 -1.35069,0.00871c-0.7057,-0.20633 -1.13872,-0.17377 -2.42194,0.18209c-0.85943,0.23833 -2.17804,0.5462 -2.93022,0.68416c-0.75221,0.13794 -1.87546,0.42681 -2.49614,0.64196l-1.12848,0.39117v1.65218v1.65218l1.61915,-0.0069l1.61915,-0.0069l0.63401,-0.96147c0.34871,-0.52879 0.92655,-1.3587 1.28406,-1.84426l0.65,-0.88279l1.95423,1.73271c3.0447,2.69961 2.96431,2.60377 2.56932,3.06285c-0.29371,0.34138 -0.93709,0.39683 -5.33195,0.45942l-4.99797,0.07123v2.0367v2.0367h10.00922h10.00922v-2.04589v-2.04591l-3.66566,-0.06202l-3.66566,-0.06202l-0.2601,-0.74061l-0.26007,-0.74061h3.92573h3.92575v-2.05093v-2.05093h-4.09856c-4.08445,0 -4.09895,-0.00259 -4.21689,-0.51273c-0.25634,-1.11059 -0.35643,-1.08243 3.84621,-1.08243h3.96992l1.50169,-1.73344l1.50171,-1.73342l2.88864,2.52079l2.88864,2.52077l-0.65708,0.46514c-0.36138,0.25584 -0.72332,0.46553 -0.80426,0.46599c-0.08096,0 -0.1472,2.55193 -0.1472,5.66996c0,4.25964 -0.06096,5.72676 -0.24532,5.90104c-0.53463,0.50544 -3.08477,1.24079 -4.71022,1.3582l-1.71727,0.12406v-1.28496v-1.28496h-9.98821c-10.87935,0 -10.22648,-0.07941 -10.22648,1.2439c0,0.4073 -0.20626,0.62508 -0.93223,0.98426c-0.98857,0.48908 -3.22635,0.96215 -4.55156,0.96215h-0.79649v-8.54552zM208.9381,182.34979v-1.82305h-2.55138h-2.55136v1.82305v1.82305h2.55136h2.55138zM223.16687,182.77487c1.78215,-2.53209 2.17581,-2.2481 -3.1162,-2.2481h-4.63603v1.82305v1.82305l3.38547,-0.00259l3.38547,-0.00259l0.98131,-1.39424zM208.9381,177.10854v-1.82305h-2.55138h-2.55136v1.82305v1.82305h2.55136h2.55138zM220.12487,177.4083c0.59369,-0.83445 1.15006,-1.65344 1.23636,-1.82c0.12784,-0.24667 -0.40904,-0.3028 -2.89482,-0.3028h-3.05176v1.82305v1.82305l1.81539,-0.00259l1.81539,-0.00259l1.07943,-1.5172zM208.9381,171.86729v-1.82305h-2.55138h-2.55136v1.82305v1.82305h2.55136h2.55138zM220.27642,171.98973c0.67223,-0.93533 1.22225,-1.75569 1.22225,-1.82305c0,-0.06736 -1.3689,-0.12243 -3.04202,-0.12243h-3.04202v1.82305v1.82305h1.81977h1.81977zM208.61786,168.0503c0.0543,-0.21934 0.159,-1.39751 0.23267,-2.61821c0.12754,-2.11389 0.1538,-2.21403 0.55232,-2.10612c0.3749,0.10151 5.71042,1.02128 5.9244,1.02128c0.04807,0 0.08738,-0.61527 0.08738,-1.36727v-1.36727h-3.92518h-3.92518v1.13137c0,1.27582 -0.18713,1.48679 -1.54192,1.73835c-0.91393,0.16967 -0.91718,0.4218 -0.00809,0.63289c0.52141,0.12108 0.57912,0.19622 0.37256,0.48521c-0.13441,0.18805 -0.52569,0.34191 -0.86948,0.34191c-0.51841,0 -0.73207,0.1762 -1.25167,1.03212c-0.34461,0.56769 -0.62654,1.07288 -0.62654,1.12271c0,0.2066 0.80277,0.30047 2.78346,0.32544c1.83993,0.02316 2.10864,-0.02231 2.19529,-0.37236zM252.64204,205.08088c-0.38649,-3.96005 -1.76501,-5.5769 -5.77686,-6.77565c-0.54059,-0.16152 -0.83411,-0.37646 -0.83411,-0.61074c0,-0.27467 0.13242,-0.3308 0.5511,-0.23355c0.3031,0.07036 2.21043,0.20143 4.2385,0.29121c3.06218,0.13556 3.71695,0.10903 3.86174,-0.15645c0.09588,-0.17583 0.17567,-2.70389 0.17732,-5.61791l0.00298,-5.29823h-8.82601h-8.82605l-0.16532,-0.74061l-0.16532,-0.74061l8.99137,-0.05925l8.99135,-0.05925v-3.30198v-3.30198l1.03036,0.01826c0.5667,0.00999 1.76905,0.08935 2.67184,0.17641l1.64148,0.15826l0.78162,-1.03095c0.42986,-0.56702 1.25348,-1.85132 1.83026,-2.85397l1.04864,-1.82305l-9.11978,-0.05925l-9.11978,-0.05925l-0.19066,-0.58228c-0.10486,-0.32026 -0.19068,-0.6882 -0.19068,-0.81764c0,-0.16083 2.96816,-0.18518 9.37138,-0.07691l9.37136,0.15847l1.7517,-2.06087l1.75173,-2.06087l0.96529,0.95624c1.93008,1.91191 1.87681,1.88314 2.12028,1.14521c0.117,-0.35462 0.42022,-1.54205 0.67381,-2.63871l0.46106,-1.99395h-13.50546h-13.50548l-0.07453,2.3374c-0.06713,2.10644 -0.13441,2.46054 -0.6808,3.58348c-0.33346,0.68531 -0.93661,1.55621 -1.34033,1.93535c-0.62916,0.59083 -0.8926,0.68753 -1.84376,0.67681c-1.39708,-0.01576 -2.47394,-0.6021 -3.07664,-1.67525c-1.00898,-1.79652 -0.73644,-3.84632 0.69967,-5.2626c2.82073,-2.78179 3.89556,-4.51106 4.10752,-6.60852c0.06587,-0.65175 0.20053,-1.02548 0.36959,-1.02548c0.27213,0 1.01618,1.96864 1.39953,3.70307l0.21407,0.9685h5.1933h5.1933v-4.44366v-4.44368l0.63784,-0.00259c0.35082,-0.00259 2.29378,0.12126 4.3177,0.27306c2.65072,0.19886 3.67986,0.35437 3.67986,0.55612c0,0.34487 -0.93551,1.2247 -1.30216,1.2247c-0.21448,0 -0.26791,0.6818 -0.26791,3.4182v3.4182h4.73549h4.73549l1.692,-1.92209l1.692,-1.92211l2.70348,2.94147c1.48691,1.61779 2.71033,3.0211 2.71867,3.11845c0.00845,0.09734 -0.50168,0.39469 -1.13341,0.66077c-0.63174,0.26608 -1.83232,0.94458 -2.66797,1.5078c-0.83564,0.5632 -2.40116,1.42226 -3.47892,1.90898c-1.07774,0.48672 -1.957,0.93622 -1.95393,0.9989c0.00298,0.0627 0.52892,0.61445 1.16855,1.22622c0.63963,0.61174 1.11696,1.19872 1.06071,1.30438c-0.05622,0.10566 -0.55067,0.34672 -1.0987,0.53571c-0.54805,0.18899 -1.71443,0.82524 -2.592,1.41394c-0.87757,0.58867 -2.61122,1.64217 -3.85256,2.34111c-1.24134,0.69892 -2.2828,1.42402 -2.3144,1.61138c-0.07256,0.43066 -0.7824,1.13824 -1.14188,1.13824c-0.21451,0 -0.27265,0.48588 -0.27265,2.27879v2.27882h4.56623h4.56625l1.62096,-2.51158c1.35786,-2.10397 1.67585,-2.47598 1.95936,-2.29217c0.67967,0.44061 5.62744,5.38015 5.61067,5.60135c-0.05423,0.71576 -0.96364,0.79086 -9.61583,0.79422l-8.66133,0.00344l-0.09036,6.6655c-0.08426,6.21575 -0.11998,6.75416 -0.52906,7.97937c-0.24127,0.72263 -0.65937,1.61841 -0.92914,1.99063c-0.71019,0.98 -2.62132,1.95004 -4.90701,2.49069c-2.83184,0.66982 -2.73835,0.69337 -2.87677,-0.72487zM287.37344,203.84905c-0.0704,-1.3355 -0.1283,-7.82154 -0.12869,-14.41345c0,-11.76271 -0.00749,-11.97254 -0.36443,-11.3016c-0.55855,1.04997 -1.10197,1.50856 -1.94277,1.63951c-1.42847,0.22246 -2.59855,-0.90284 -2.59855,-2.49912c0,-1.19671 0.43277,-2.06493 1.40881,-2.82641c1.03274,-0.80568 1.79674,-2.44194 1.79674,-3.84802c0,-0.79546 0.07047,-1.01148 0.32984,-1.01148c0.18138,0 0.42565,0.23073 0.54276,0.51273c0.15806,0.38049 0.21639,-1.41211 0.22624,-6.95036c0.00742,-4.1047 0.0855,-7.46309 0.1738,-7.46309c0.08827,0 1.25249,0.51273 2.58712,1.13941l2.42663,1.13941h2.40601h2.40599l0.94371,-1.40911c0.51903,-0.77502 1.00067,-1.50714 1.07031,-1.62696c0.09125,-0.15698 4.08351,2.78243 5.2494,3.86504c0.20482,0.1902 -0.50047,0.78898 -1.17932,1.00122l-0.76217,0.23831v4.92594c0,4.89494 0.00222,4.92342 0.3886,4.51763c0.37692,-0.39605 0.41524,-0.38294 1.27568,0.4357l0.8871,0.84403v-6.28198c0,-3.45509 0.07226,-6.28196 0.16048,-6.28196c0.08827,0 1.25249,0.51273 2.58712,1.13941c1.44038,0.6763 2.73115,1.13939 3.17591,1.13939h0.74927v-2.76043v-2.76046l0.83411,0.13357c0.45875,0.07347 1.38326,0.20053 2.05444,0.28237c1.11544,0.13599 1.20342,0.1855 1.02346,0.57591c-0.10827,0.23494 -0.32624,0.42716 -0.48436,0.42716c-0.23116,0 -0.28748,0.40168 -0.28748,2.05093v2.05093h0.78504h0.78504v-2.76043v-2.76046l0.83411,0.13357c0.45875,0.07347 1.38326,0.20053 2.05444,0.28237c1.11544,0.13599 1.20342,0.1855 1.02346,0.57591c-0.10827,0.23494 -0.32624,0.42716 -0.48436,0.42716c-0.23119,0 -0.28748,0.40168 -0.28748,2.05093v2.05093h0.52091c0.38743,0 0.79399,-0.35036 1.58654,-1.36727c0.58609,-0.752 1.14837,-1.36727 1.24949,-1.36727c0.1011,0 1.21975,0.89324 2.48583,1.98497c1.2661,1.09173 2.33664,2.01217 2.37903,2.04541c0.196,0.1538 -0.45772,0.74091 -0.97063,0.8717l-0.57206,0.14589l-0.05221,6.19245l-0.05214,6.19243l-0.65337,0.37884c-0.35934,0.20834 -0.69509,0.42725 -0.74607,0.48645c-0.05095,0.05918 0.71546,0.91013 1.70316,1.89097l1.79585,1.78336l-0.43369,0.40775c-0.40569,0.38145 -1.17902,0.40778 -11.978,0.40778c-11.50623,0 -11.54475,-0.00259 -11.67341,-0.47225c-0.0907,-0.33192 -0.22587,-0.4248 -0.45479,-0.31252c-0.17916,0.08786 -0.52045,0.20887 -0.75844,0.26894l-0.43268,0.10924l-0.0669,10.74276c-0.04843,7.7705 -0.13441,10.97722 -0.31082,11.59022c-0.50526,1.75567 -1.84657,2.88674 -4.01098,3.3823c-0.56441,0.12919 -1.21213,0.27971 -1.43942,0.33444c-0.39282,0.0946 -0.41857,-0.01249 -0.52088,-2.1689c-0.1269,-2.67409 -0.51426,-3.8189 -1.46581,-4.33227c-0.38118,-0.20564 -0.63527,-0.51264 -0.63784,-0.77063c-0.00371,-0.37252 0.10383,-0.41197 0.81901,-0.30058c1.41373,0.22019 1.53186,0.02094 1.53186,-2.5829v-2.27078h-1.27568h-1.27568v5.20152c0,5.1765 -0.00222,5.20397 -0.4648,5.70855c-0.68086,0.74268 -2.97373,1.61289 -4.26464,1.61855l-1.09867,0.00518l-0.12793,-2.42821zM295.88088,189.30015v-2.8485h-1.27568h-1.27568v2.8485v2.84852h1.27568h1.27568zM295.88088,182.00797v-2.8485h-1.27568h-1.27568v2.8485v2.8485h1.27568h1.27568zM320.3642,177.844c0.71688,-1.22131 0.76474,-1.41909 0.34344,-1.41909c-0.19625,0 -0.29439,-0.22789 -0.29439,-0.68364v-0.68364h-5.39713c-5.31472,0 -5.39713,0.0069 -5.39713,0.46835c0,0.78052 -2.86257,2.03833 -4.63887,2.03833c-0.42578,0 -0.46386,-0.0935 -0.46386,-1.13939c0,-0.62668 -0.0543,-1.13941 -0.12067,-1.13941c-0.22564,0 -2.41859,1.93617 -2.37545,2.09732c0.0236,0.08818 0.39614,0.46989 0.82792,0.84822l0.78504,0.68787l8.04663,0.00603l8.04663,0.00603l0.63784,-1.08669zM296.66324,175.91218c0.67773,-0.90866 1.3058,-1.68515 1.39575,-1.72547c0.08997,-0.04039 0.57784,0.29394 1.08422,0.74286c0.50636,0.44892 0.95086,0.78116 0.98777,0.73825c0.03693,-0.04289 0.14415,-0.55662 0.23829,-1.14165l0.17116,-1.06369h-6.66875h-6.66875l0.13535,0.62622c0.07443,0.34438 0.15977,0.65456 0.18965,0.68923c0.02983,0.03462 1.32535,0.66696 2.87886,1.40507c2.22638,1.05783 3.05753,1.3462 3.9244,1.36171l1.09982,0.01963zM311.14665,171.12668l0.05572,-2.4497h-0.79168h-0.79168v2.35476c0,1.29513 0.06305,2.42801 0.14014,2.51749c0.07707,0.08951 0.40826,0.13224 0.73596,0.09496l0.59582,-0.06779zM315.85687,171.12668l0.05572,-2.4497h-0.79168h-0.79168v2.52045v2.52043l0.73596,-0.0707l0.73596,-0.0707zM320.41327,171.18361v-2.50668h-0.68691h-0.68691v2.50668v2.50668h0.68691h0.68691zM292.74074,167.09453v-4.77272l1.74382,0.89874c0.95911,0.49431 1.97473,0.89876 2.25698,0.89876h0.51316v-2.27882v-2.27879h-2.9439h-2.9439v6.15277v6.15277h0.68691h0.68691zM297.21131,168.73391l0.05473,-3.01941h-0.79074h-0.79072v3.09015v3.09011l0.73596,-0.0707l0.73596,-0.0707zM311.18908,164.57507v-2.50668h-0.78504h-0.78504v2.50668v2.50668h0.78504h0.78504zM315.8993,164.57507v-2.50668h-0.78504h-0.78504v2.50668v2.50668h0.78504h0.78504zM320.41327,164.57507v-2.50668h-0.68691h-0.68691v2.50668v2.50668h0.68691h0.68691zM415.79518,206.11779c-6.02422,-1.19552 -11.09931,-3.06954 -14.42669,-5.32723l-1.32335,-0.89794l-1.92674,1.02548c-5.07265,2.69986 -13.0914,4.80543 -18.90556,4.96424c-2.47527,0.06761 -2.67409,-0.29112 -0.46643,-0.84144c5.80928,-1.44812 11.92968,-4.2815 15.99159,-7.40313l1.60483,-1.23334l-1.03501,-1.3873c-0.56927,-0.76302 -1.45176,-2.07407 -1.9611,-2.91347l-0.92607,-1.5262l-1.3149,0.98442c-3.00995,2.25346 -7.22432,4.48648 -10.39741,5.50916c-1.74185,0.56141 -1.95872,0.17528 -0.49213,-0.8762c1.8994,-1.3618 4.16917,-3.5418 6.33637,-6.08585c2.44847,-2.8742 3.91137,-5.0497 5.37083,-7.98711c0.81732,-1.64499 1.16172,-2.14686 1.43412,-2.08992c0.42539,0.08894 5.89364,1.8504 6.28322,2.02397c0.21387,0.09528 0.2444,-0.08561 0.14782,-0.87549c-0.35767,-2.92458 -1.32952,-4.2062 -3.76756,-4.96848c-0.49944,-0.15613 -0.83301,-0.39433 -0.83301,-0.59481c0,-0.27778 0.29057,-0.31357 1.71727,-0.21148c0.94449,0.06761 2.07611,0.16612 2.5147,0.21902c0.43857,0.05288 0.99056,0.03746 1.2266,-0.03418c0.4272,-0.12972 0.4292,-0.15719 0.4292,-5.91469v-5.78438h-1.45992h-1.45992l-0.12113,1.08243c-0.25419,2.27144 -0.91187,5.52678 -1.39845,6.92211c-1.48118,4.24739 -4.49321,7.58465 -9.07053,10.05002c-1.49937,0.80753 -6.61294,2.91043 -7.07735,2.91043c-0.09579,0 -0.22319,-0.14839 -0.28315,-0.32979c-0.07675,-0.23222 0.37802,-0.638 1.53726,-1.37172c2.20482,-1.3955 4.49044,-3.39218 5.72683,-5.00287c1.51894,-1.97881 2.84951,-5.01286 3.12134,-7.11749c0.12429,-0.96247 0.11285,-0.99038 -0.40656,-0.99038c-0.36686,0 -0.86875,0.35472 -1.60022,1.13098c-2.18138,2.31486 -6.12581,4.99077 -9.60905,6.51881c-1.7276,0.75789 -1.85008,0.38826 -0.42975,-1.29714c2.06679,-2.45252 4.19518,-6.10872 5.46815,-9.39331l0.65876,-1.69981l3.12017,1.81411c1.71608,0.99776 3.15923,1.76875 3.20697,1.71333c0.0477,-0.05547 0.13989,-1.18956 0.20479,-2.52027l0.11799,-2.41946h-6.96383h-6.96383l-0.21082,-0.79759l-0.21082,-0.79759h9.20581h9.20581v-3.894v-3.894l0.73596,0.12601c0.40477,0.06933 2.34001,0.24702 4.30052,0.39495l3.56453,0.26896l-0.20986,0.53477c-0.11542,0.29414 -0.5051,0.65876 -0.86598,0.81028l-0.65612,0.27549v2.68877v2.68879h4.17923h4.17923l0.77631,-1.18619c0.42695,-0.65239 1.22995,-1.83054 1.78442,-2.61807l1.00811,-1.43192l3.21144,2.85079c1.76632,1.56794 3.23996,3.00213 3.27481,3.18713c0.12633,0.67065 -0.95954,0.79342 -7.01863,0.79342h-6.04656l-0.09957,6.6655c-0.10546,7.06113 -0.22037,8.03504 -1.12163,9.50465c-0.56354,0.91892 -2.17623,1.97968 -3.53839,2.32741c-0.59369,0.15155 -1.30874,0.46872 -1.58902,0.70483c-0.28028,0.23611 -0.87794,0.48666 -1.3281,0.55676c-0.69571,0.10836 -0.96818,0.32807 -1.8159,1.46425l-0.99734,1.33673h2.97308h2.97308l1.87826,-1.88002c1.03306,-1.034 1.92337,-1.86893 1.97847,-1.85542c0.05512,0.01343 1.32624,1.33453 2.8247,2.93556c2.98328,3.18748 3.03396,3.32118 1.43655,3.78822c-0.65399,0.19123 -0.97597,0.47133 -1.48173,1.28903c-0.3554,0.57458 -1.47099,1.99159 -2.47907,3.14887l-1.8329,2.10415l0.93787,0.23295c2.76538,0.68691 9.30849,1.40015 12.86063,1.40184c1.55802,0 1.91352,0.06355 1.91352,0.33813c0,0.18546 -0.33119,0.5339 -0.73596,0.77434c-1.78657,1.06122 -3.29978,3.75821 -3.524,6.28084c-0.06477,0.72884 -0.20518,1.25391 -0.3305,1.23604c-0.11984,-0.01705 -0.43866,-0.07485 -0.70852,-0.12839zM400.35103,192.18985c1.14104,-1.52411 2.47106,-3.65088 2.48409,-3.97215c0.00371,-0.094 -1.67828,-0.17091 -3.73801,-0.17091h-3.74495l-0.86712,0.82504c-0.47692,0.45376 -0.86712,0.91003 -0.86712,1.01393c0,0.48166 4.75597,3.86067 5.39713,3.8345c0.10795,-0.00431 0.70914,-0.69308 1.33602,-1.53044zM427.10477,204.83088c-0.29593,-3.35403 -1.04775,-4.71551 -3.06275,-5.54648c-0.55497,-0.22885 -0.98527,-0.54741 -0.98527,-0.72936c0,-0.26864 0.37749,-0.29804 2.24104,-0.17444c1.23258,0.08174 2.3807,0.08639 2.55136,0.01024c0.2719,-0.12115 0.31032,-0.87072 0.31032,-6.05336v-5.9151l-0.73596,0.48824c-0.40477,0.26853 -0.91379,0.81232 -1.13112,1.20844c-0.78556,1.43176 -0.93656,1.20871 -2.2324,-3.29781c-0.65809,-2.28869 -1.13098,-4.22638 -1.05084,-4.30597c0.08016,-0.07959 1.16136,-0.38125 2.40269,-0.67033c1.24134,-0.28908 2.36739,-0.57257 2.50231,-0.62998c0.18582,-0.07906 0.24532,-1.28693 0.24532,-4.97939v-4.87505h-2.13966h-2.13964l-0.21547,-0.71763c-0.11851,-0.39472 -0.21545,-0.75363 -0.21545,-0.79759c0,-0.04401 1.0598,-0.07993 2.35511,-0.07993h2.35511v-6.60417v-6.60417l0.83411,0.11446c0.45875,0.06296 2.19417,0.26436 3.85652,0.44762c1.66231,0.18323 3.06046,0.37735 3.10697,0.43137c0.2247,0.2609 -0.41552,1.04245 -1.05455,1.28732l-0.71782,0.27508l0.12683,3.21836c0.06972,1.77008 0.12837,4.03872 0.13024,5.0414l0.00371,1.82305l0.9976,-2.16486c0.54867,-1.19066 1.06046,-2.24269 1.13732,-2.33779c0.07686,-0.0951 0.8852,0.90369 1.79638,2.21953c0.91116,1.31584 1.72169,2.39348 1.80119,2.39477c0.31531,0.00518 3.07547,-6.92633 3.77388,-9.47711c0.40844,-1.4917 0.76845,-2.82664 0.80004,-2.96658c0.07588,-0.33598 8.3726,1.30461 8.47943,1.67674c0.04286,0.14921 -0.30406,0.39293 -0.79754,0.56029c-0.76753,0.26028 -0.99322,0.50329 -1.86234,2.00529l-0.98898,1.70909l1.16869,0.06804l1.16871,0.06804l1.48597,-1.83409c0.81727,-1.00878 1.54819,-1.83413 1.62421,-1.83413c0.07606,0 1.35204,1.20243 2.83549,2.67205c2.41165,2.38915 2.66103,2.70279 2.35522,2.96245c-0.18809,0.15971 -0.57298,0.29039 -0.85528,0.29039c-0.3017,0 -1.1074,0.48601 -1.95443,1.17897c-0.79264,0.6484 -2.20074,1.67365 -3.12908,2.27827l-1.68792,1.09932h3.26356h3.26358l1.10786,-1.70911c0.60934,-0.94 1.15962,-1.70909 1.22285,-1.70909c0.06321,0 1.38278,1.04493 2.93235,2.32203c3.00465,2.47639 3.0913,2.63376 1.73599,3.15311l-0.67122,0.25721v6.90477c0,5.63965 -0.05036,6.95329 -0.27471,7.1695c-0.15107,0.14559 -0.73145,0.45149 -1.28972,0.67974l-1.01501,0.41504l2.66355,2.5651c1.46494,1.41078 2.66352,2.70332 2.66352,2.87228c0,0.68167 -0.80687,0.77899 -6.4575,0.77899c-6.47706,0 -6.32432,-0.06202 -4.26846,1.73244c2.18214,1.90465 5.24789,3.37172 8.95962,4.28755c1.51284,0.3733 2.07703,0.60664 2.12209,0.87771c0.04316,0.25966 -0.16156,0.43891 -0.68994,0.60414c-1.11728,0.34931 -2.5262,1.47449 -3.07503,2.45575c-0.48595,0.86889 -0.79283,1.94836 -1.00756,3.54435c-0.06328,0.47 -0.18924,0.85455 -0.27998,0.85455c-0.44846,0 -2.6931,-2.03134 -3.87835,-3.50987c-2.00859,-2.50549 -3.8123,-6.33326 -4.60405,-9.77048c-0.13631,-0.59186 -0.34805,-1.07613 -0.4705,-1.07613c-0.12245,0 -0.33362,0.43582 -0.46929,0.9685c-0.38159,1.49816 -1.68982,4.2692 -2.58978,5.48552c-2.38835,3.22796 -6.70678,5.67572 -13.38747,7.58834c-1.78598,0.51131 -2.1573,0.55823 -2.30303,0.29093c-0.27345,-0.50143 -0.25332,-0.52276 1.14498,-1.21286c4.826,-2.38173 8.28492,-5.67523 9.85882,-9.3874c0.46805,-1.10397 1.16362,-3.27334 1.17863,-3.67608c0.00222,-0.03134 -2.20326,-0.05693 -4.89874,-0.05693h-4.90087l-0.16536,-0.74061l-0.16536,-0.74061l5.10881,-0.0608c2.80987,-0.03349 5.17277,-0.13602 5.25092,-0.22789c0.07815,-0.09189 0.23423,-1.59255 0.34688,-3.33481c0.1126,-1.74226 0.23565,-3.20363 0.27341,-3.24746c0.07938,-0.09219 5.90894,0.3215 7.15044,0.50739c0.7654,0.11462 0.81693,0.16317 0.62203,0.58599c-0.11686,0.25355 -0.50146,0.60118 -0.85466,0.77255c-0.59903,0.29061 -0.65039,0.4031 -0.76492,1.67532c-0.06749,0.7501 -0.18016,1.7805 -0.25029,2.28979l-0.12754,0.92598h2.2724h2.2724l1.38347,-2.16548c0.76091,-1.191 1.38347,-2.21648 1.38347,-2.27879c0,-0.06236 -0.57406,-0.11334 -1.27568,-0.11334h-1.27568v-2.94433v-2.94435l-2.5314,-0.0751c-3.66369,-0.10869 -3.74602,-0.24676 -3.74781,-6.28482l-0.00149,-3.70192h-0.78504h-0.78504l-0.00222,0.9685c-0.00222,1.49374 -0.7246,4.65001 -1.40239,6.12654c-0.7172,1.5624 -2.03352,3.06385 -3.56714,4.0688l-1.09714,0.71896l-0.05705,1.74139c-0.05556,1.69544 -0.0746,1.75509 -0.72091,2.25992c-0.86373,0.67466 -1.76488,0.96841 -3.47692,1.13329l-1.39314,0.13416l-0.12786,-0.7424c-0.06972,-0.40833 -0.12729,-2.58398 -0.12729,-4.83478v-4.09236l-0.47103,0.41779c-0.25907,0.22979 -1.42924,1.27339 -2.60043,2.31916l-2.12942,1.90135l-0.09815,9.94844c-0.09501,9.63118 -0.11182,9.98288 -0.52803,11.02915c-0.85904,2.15953 -2.22574,3.03423 -5.77384,3.69535l-0.70847,0.13201zM446.81876,176.42491c0.26505,-0.97847 0.4407,-2.42874 0.51749,-4.27277l0.11627,-2.79154h-1.01114h-1.01114l0.00593,5.18427l0.00593,5.18427l0.4875,-0.91152c0.26812,-0.50134 0.66806,-1.57807 0.88873,-2.39275zM439.63268,175.93246c0.03285,-0.04245 0.00371,-0.96694 -0.06431,-2.05437l-0.12401,-1.97712l-1.12028,0.80877c-0.67553,0.48771 -1.24745,0.75211 -1.44061,0.66606c-0.26729,-0.11909 -0.19441,-0.32191 0.43996,-1.22443c0.41818,-0.59493 1.0047,-1.46624 1.30342,-1.93624l0.54308,-0.85455h-2.46322h-2.46322v3.94992c0,2.17247 0.0405,3.997 0.09006,4.05451c0.08685,0.10085 5.1777,-1.27547 5.2991,-1.43259zM458.9967,174.82975c0.33937,0 0.36798,-0.21267 0.36798,-2.73457v-2.73457h-1.07943h-1.07941v2.69658c0,1.48313 0.06564,2.77278 0.14585,2.86591c0.08019,0.09313 0.40035,0.11022 0.71143,0.03798c0.31107,-0.07226 0.7312,-0.13134 0.93358,-0.13134zM451.38543,165.99936c0.26232,-0.97134 0.53889,-2.20191 0.61456,-2.73457l0.13762,-0.9685h-1.743h-1.74297l-1.99336,2.47694c-1.89627,2.3563 -1.97235,2.48874 -1.56162,2.71915c0.23749,0.13322 1.64228,0.24912 3.12179,0.25762l2.69003,0.01551l0.47694,-1.76607zM21.78761,205.73691c-0.05682,-0.17183 0.34881,-1.00593 0.90135,-1.85356c1.26615,-1.94231 2.96131,-5.98887 3.62396,-8.65075c1.08005,-4.33855 1.6728,-10.11129 1.67385,-16.30103l0.0006,-3.07639l-11.87371,0.06211c-9.50804,0.04978 -11.87426,0.00431 -11.87639,-0.22789c-0.00149,-0.15952 -0.05592,-0.52075 -0.12101,-0.80275l-0.11833,-0.51273h6.17919h6.17919l0.31,-1.31032c0.30124,-1.27334 1.14479,-6.24899 1.3908,-8.2037l0.12188,-0.9685l-4.46721,0.00344l-4.46721,0.00344l1.32681,0.85102c0.72975,0.46805 1.71353,1.23116 2.18617,1.69583c1.02041,1.00312 1.88415,2.88571 1.88415,4.1067c0,3.12239 -2.66691,4.59764 -4.79608,2.65298c-0.42354,-0.38684 -0.50315,-0.64554 -0.50439,-1.63917c-0.00222,-1.57138 -0.31126,-3.75125 -0.83826,-5.90834l-0.43147,-1.76607h-1.42998c-1.3544,0 -1.44008,-0.03093 -1.62137,-0.58453c-0.10527,-0.3215 -0.19141,-0.68041 -0.19141,-0.79759c0,-0.12486 1.58237,-0.21304 3.82231,-0.21304h3.82231l0.05377,-3.70304l0.05377,-3.70307l3.97425,0.32154c3.68687,0.29829 3.97425,0.35307 3.97425,0.75752c0,0.29277 -0.25726,0.56148 -0.78304,0.81789l-0.78304,0.38186l-0.00222,2.56366c-0.00149,1.99583 0.05645,2.56366 0.26179,2.56366c0.14507,0 0.8627,-0.98103 1.59472,-2.18008l1.33094,-2.18008l0.51506,0.53823c0.62134,0.64927 3.98706,4.07996 4.19566,4.27664c0.08135,0.07675 0.02612,0.33295 -0.12284,0.56943c-0.23987,0.38088 -0.63596,0.44452 -3.46932,0.55747l-3.19854,0.12747l2.59637,0.89691c1.42801,0.4933 2.6432,0.98488 2.70045,1.09242c0.1749,0.32855 -0.34257,0.85917 -0.83789,0.85917c-0.34491,0 -1.30399,0.98655 -3.65583,3.76053l-3.18826,3.76055h1.61214h1.61214l1.3253,-2.16486c0.72891,-1.19068 1.38606,-2.16486 1.46031,-2.16486c0.07425,0 1.0206,0.92291 2.10294,2.05093c1.08236,1.128 2.01806,2.05093 2.07934,2.05093c0.06126,0 0.11141,-3.395 0.11141,-7.54444c0,-5.94166 0.05214,-7.52133 0.24532,-7.43564c0.13492,0.05986 1.54812,0.58725 3.14044,1.17206l2.8951,1.06323l1.188,-0.93672c1.33369,-1.05162 4.29951,-3.90527 5.17749,-4.98165c0.31703,-0.38867 0.65333,-0.70666 0.74733,-0.70666c0.094,0 1.63385,1.35089 3.42192,3.002c3.01416,2.78325 3.22427,3.02543 2.88348,3.32361c-0.26912,0.23547 -0.68962,0.28498 -1.57005,0.18486c-0.95423,-0.10855 -1.69665,0.00344 -3.59594,0.54187c-1.31641,0.37325 -3.66763,0.91317 -5.22491,1.19987l-2.83143,0.5212l-0.00009,5.29823l-0.00016,5.29742l2.50231,-0.00344l2.50231,-0.00344l1.6575,-2.72602c1.4393,-2.36714 1.69766,-2.68685 1.96259,-2.4286c2.52171,2.45807 5.70222,5.72144 5.70222,5.85075c0,0.52235 -0.77825,0.78499 -2.57429,0.86875l-1.93968,0.09045v14.19949v14.19949l-0.51765,0.47277c-0.79651,0.72751 -2.34349,1.19957 -4.33976,1.32427l-1.81539,0.11345v-15.18124v-15.18124h-1.54006h-1.54006l-0.12071,4.27277c-0.28945,10.24462 -1.98204,15.83184 -6.347,20.95125c-1.34569,1.57827 -5.47828,5.08409 -5.99304,5.08409c-0.09469,0 -0.21863,-0.1406 -0.2754,-0.31245zM164.38729,204.67972c-3.50742,-0.38709 -5.85762,-1.35809 -7.43585,-3.07219c-2.16789,-2.35454 -2.68536,-6.07172 -1.30092,-9.34494c1.02461,-2.42249 3.69761,-5.47885 7.12748,-8.14966l1.82524,-1.42132l-0.11508,-1.70911c-0.06328,-0.94 -0.20754,-2.04415 -0.32058,-2.45367c-0.37921,-1.37378 -1.90658,-1.81044 -3.3982,-0.9715c-1.4437,0.81198 -3.93744,3.96479 -6.13382,7.75492c-1.69221,2.92009 -2.52991,4.01471 -3.48215,4.54994c-0.8257,0.46411 -0.968,0.48052 -1.7323,0.19971c-0.67729,-0.24887 -0.91356,-0.49209 -1.26596,-1.30317c-0.23831,-0.54844 -0.49252,-1.45593 -0.56494,-2.01664c-0.23222,-1.79803 0.11544,-2.54251 2.50169,-5.35717c1.1971,-1.41199 2.73651,-3.39795 3.42095,-4.41321c1.12385,-1.66705 3.02365,-5.01013 3.02429,-5.32182c0.00014,-0.06848 -1.02632,-0.08965 -2.28104,-0.0471c-4.03437,0.13664 -5.10665,-0.81331 -6.56236,-5.81366c-0.72247,-2.48173 -0.56879,-2.6361 1.31245,-1.31836c1.9504,1.3662 3.48031,1.78146 6.03343,1.63763c1.20129,-0.0677 2.63296,-0.24007 3.18147,-0.38306l0.9973,-0.25998l0.40931,-1.4136c0.60753,-2.09822 0.64352,-2.43866 0.34519,-3.26766c-0.21716,-0.60347 -0.57287,-0.92946 -1.75603,-1.60923c-0.95918,-0.55108 -1.48372,-0.98653 -1.48372,-1.23176c0,-0.43777 1.5725,-1.25274 2.9375,-1.52244c1.25593,-0.24816 4.11859,0.09579 5.38831,0.64739c1.02836,0.44675 1.87966,1.31538 1.87966,1.91798c0,0.15089 -0.43373,1.30418 -0.96385,2.56288l-0.96387,2.28853l1.17325,-0.41245c1.15948,-0.40762 1.84318,-0.77154 3.43552,-1.82861c0.76815,-0.50996 0.88421,-0.5256 1.95773,-0.26415c2.83725,0.69099 3.23852,3.67214 0.74178,5.51065c-1.10514,0.81377 -5.53422,2.52366 -8.39321,3.24026l-2.11778,0.53083l-0.70888,1.36727c-0.38986,0.752 -1.14014,2.11613 -1.66726,3.03134c-0.52711,0.91526 -0.93049,1.75718 -0.8964,1.87095c0.03411,0.11377 0.48643,-0.10046 1.0052,-0.47607c1.53511,-1.11146 2.85448,-1.61754 4.25767,-1.63314c2.56469,-0.0285 4.14035,0.98257 5.04353,3.23627c0.30241,0.75461 0.63816,1.37247 0.74609,1.37309c0.33591,0.00259 7.62939,-4.56362 8.09568,-5.06761c0.24287,-0.26253 0.44159,-0.70277 0.44159,-0.97828c0,-0.48244 -1.11171,-1.84944 -2.12255,-2.60991c-0.70838,-0.53293 -0.38558,-1.13939 0.60645,-1.13939c1.33476,0 3.32459,0.48013 4.39445,1.06032c1.19719,0.64925 3.13996,2.95292 3.77512,4.4764c0.57165,1.37117 0.61731,2.75789 0.11015,3.34533c-0.24809,0.28738 -1.46815,0.76652 -3.42725,1.34592c-3.23442,0.95663 -5.62023,1.80595 -9.14563,3.25575l-2.17843,0.89585l0.08271,4.37513c0.09343,4.94049 -0.01588,5.47892 -1.31923,6.49867c-0.57348,0.44867 -0.8737,0.52226 -1.81803,0.44553c-1.30191,-0.10578 -2.02882,-0.61404 -2.55676,-1.78767c-0.30768,-0.68403 -0.33499,-1.14608 -0.21911,-3.70845l0.13237,-2.92706l-0.66405,0.39694c-2.59429,1.55076 -5.16748,4.28695 -5.77842,6.14445c-0.4283,1.30216 -0.17189,2.5292 0.70815,3.38904c0.8485,0.829 1.74905,1.08106 4.34148,1.21524c2.7844,0.14408 5.21951,-0.15641 9.05939,-1.11797c2.76018,-0.6912 2.99226,-0.71507 4.48927,-0.46171c2.54675,0.43098 3.56792,1.42313 3.56792,3.46636c0,2.01927 -1.07574,3.11934 -3.76263,3.84784c-3.14599,0.85294 -8.78326,1.29181 -12.01358,0.9353zM302.57289,204.19233c-0.11851,-0.39472 -0.21545,-0.75363 -0.21545,-0.79759c0,-0.04401 1.73409,-0.07993 3.85354,-0.07993h3.85352l-0.5171,-0.47231c-0.47011,-0.42936 -0.51825,-0.62095 -0.52975,-2.10789c-0.00822,-1.05991 -0.16612,-2.15691 -0.44872,-3.1168l-0.43609,-1.48123l-1.21948,-0.06786l-1.2195,-0.06786v-7.3681v-7.3681l2.93867,1.34015l2.93867,1.34015h3.35887h3.35887l1.33355,-1.65214l1.33353,-1.65214l0.95528,0.7912c5.15472,4.26938 5.07533,4.15944 3.54064,4.90399l-0.72091,0.34977v3.86456v3.86454l-1.03036,0.34562c-0.5667,0.19008 -1.60441,0.47992 -2.30606,0.64412l-1.27568,0.2985l1.91352,0.76673c1.05244,0.42168 1.91352,0.83997 1.91352,0.92951c0,0.30677 -0.52824,0.6717 -1.19627,0.82641c-0.43735,0.10129 -1.53271,0.97343 -3.1705,2.52434c-1.37628,1.30326 -2.50231,2.41353 -2.50231,2.46721c0,0.05375 0.74286,0.09764 1.65081,0.09764h1.65083l1.41538,-2.06083c1.25648,-1.82944 1.45121,-2.02546 1.73464,-1.7457c0.17561,0.17331 1.29075,1.22092 2.47811,2.32801c1.18736,1.10708 2.15886,2.12037 2.15886,2.25172c0,0.76307 -0.83975,0.81523 -13.17922,0.81865l-12.19791,0.00344l-0.21547,-0.71763zM315.70305,203.1604c0,-0.08493 0.2573,-1.64875 0.57177,-3.47518c0.31444,-1.82641 0.62911,-3.71482 0.69922,-4.19644c0.13281,-0.91251 0.26273,-0.95723 1.36028,-0.46819c0.25824,0.11508 0.31263,-0.04419 0.31263,-0.91569v-1.05496l-3.58174,0.06211l-3.58174,0.06211l-0.06305,0.63811c-0.04614,0.46714 -0.24333,0.73791 -0.73596,1.0107c-0.37011,0.20493 -0.67271,0.4305 -0.67246,0.5013c0,0.07079 0.48975,0.42558 1.08777,0.7884c2.67922,1.62549 3.64387,4.70515 2.05258,6.55283l-0.55926,0.64934h1.55497c0.85523,0 1.55497,-0.06951 1.55497,-0.15441zM318.64693,188.6165v-3.07639h-3.63081h-3.63079v2.92447c0,1.60847 0.0589,2.99286 0.13084,3.07639c0.07196,0.08355 1.70581,0.15194 3.63079,0.15194h3.49995zM339.79864,203.62316c-1.36377,-0.46892 -2.6783,-2.10436 -3.77523,-4.69688c-1.0154,-2.39983 -1.4056,-4.30565 -1.67999,-8.20524c-0.31382,-4.45983 0.08456,-8.26586 1.65967,-15.85626c0.98012,-4.72309 1.35305,-8.0867 1.09822,-9.90487c-0.19703,-1.40565 -0.99143,-3.58142 -1.70332,-4.66511c-0.73924,-1.12537 -0.41041,-1.37373 1.15135,-0.86957c2.89936,0.93597 5.59319,3.44038 6.81535,6.33612c0.57862,1.37092 0.63711,1.68904 0.56874,3.09366c-0.06914,1.42065 -0.17817,1.76446 -1.17753,3.71319c-2.211,4.3114 -3.40624,7.54699 -3.98065,10.77593c-0.5941,3.33965 -0.27556,6.75361 0.63016,6.75361c0.40001,0 2.25517,-3.12667 4.25912,-7.17825c0.61992,-1.25334 1.14356,-2.30038 1.16362,-2.32672c0.11162,-0.14658 0.90254,0.25361 0.90254,0.45664c0,0.1329 -0.5224,1.94115 -1.1609,4.01831c-1.88284,6.12539 -2.14376,8.67421 -1.27866,12.49024c0.53539,2.36148 0.53527,3.61266 0,4.8154c-0.58047,1.30335 -1.93081,1.78662 -3.49211,1.24979zM359.67568,201.00818c-6.50052,-0.87448 -10.01014,-4.67487 -10.49636,-11.36621c-0.16892,-2.32457 0.07863,-4.64254 0.50599,-4.73789c0.2475,-0.05521 0.44812,0.3612 0.85141,1.76728c0.97579,3.4021 2.96099,5.72273 5.59571,6.54107c2.01384,0.62551 7.26785,0.56455 10.20432,-0.11842c2.47351,-0.57529 3.39811,-0.53199 4.93359,0.23107c1.28991,0.641 1.96007,1.53108 2.07957,2.76188c0.28786,2.96555 -1.94692,4.4626 -7.37358,4.9395c-3.03164,0.26642 -4.20954,0.26298 -6.30066,-0.01826zM415.53524,178.14504c-0.41282,-0.17095 -0.77759,-0.3459 -0.81063,-0.38878c-0.03301,-0.04289 -0.28216,-0.72187 -0.55364,-1.50881c-0.96733,-2.8041 -3.44343,-6.79888 -5.12846,-8.27401c-0.48858,-0.42771 -0.85993,-0.8802 -0.8252,-1.00555c0.16163,-0.58315 4.75265,0.11609 6.90688,1.05196c1.51424,0.65784 3.3327,2.13916 3.9921,3.25199c1.19923,2.02383 1.25939,4.30223 0.15226,5.76635c-1.04183,1.37774 -2.22906,1.72973 -3.73331,1.10688zM355.8793,176.59582c-0.04926,-0.15666 0.9679,-1.47518 2.2604,-2.93004c2.54968,-2.86997 2.73468,-3.31765 1.5251,-3.69033c-1.03709,-0.31953 -4.95357,-0.03162 -7.14132,0.52505c-1.58595,0.40354 -1.97022,0.43848 -2.10188,0.19109c-0.34021,-0.63917 2.47158,-3.20564 4.85755,-4.43376c2.92225,-1.50416 5.33798,-2.01762 8.69212,-1.84754c2.86978,0.14552 4.65661,0.69564 5.92188,1.82318c1.27089,1.13254 1.62297,1.81267 1.62297,3.13501c0,0.97148 -0.09049,1.25414 -0.58551,1.82891c-0.62054,0.72052 -1.54224,1.00154 -5.18148,1.57972c-2.1477,0.3412 -4.62857,1.31694 -7.29218,2.86802c-2.27808,1.32658 -2.44059,1.38652 -2.57763,0.95068z" fill="#000000" stroke-width="0.26458"/></g></g></svg>